<svg width="18" height="20" viewBox="0 0 18 20" fill="none" xmlns="http://www.w3.org/2000/svg">
<path fill-rule="evenodd" clip-rule="evenodd" d="M5.33767 4.59C5.76848 4.59 6.09159 4.261 6.09159 3.82V0.771C6.09159 0.33 5.76848 0 5.33767 0C4.90686 0 4.58375 0.33 4.58375 0.771V3.82C4.58375 4.261 4.90686 4.59 5.33767 4.59ZM0.0800781 14.87V7.257H17.9197V14.931C17.9197 18.07 15.9614 20 12.8282 20H5.16172C2.0579 20 0.0800781 18.03 0.0800781 14.87ZM4.99527 12.41C4.54487 12.431 4.17281 12.07 4.15323 11.611C4.15323 11.151 4.50571 10.771 4.95611 10.75C5.39671 10.75 5.75899 11.101 5.76878 11.55C5.78836 12.011 5.43588 12.391 4.99527 12.41ZM9.01946 12.41C8.56907 12.431 8.197 12.07 8.17742 11.611C8.17742 11.151 8.5299 10.771 8.9803 10.75C9.4209 10.75 9.78318 11.101 9.79297 11.55C9.81255 12.011 9.46007 12.391 9.01946 12.41ZM13.0143 16.09C12.5639 16.08 12.2016 15.7 12.2016 15.24C12.1918 14.78 12.5541 14.401 13.0045 14.391H13.0143C13.4745 14.391 13.8465 14.771 13.8465 15.24C13.8465 15.71 13.4745 16.09 13.0143 16.09ZM8.17742 15.24C8.197 15.7 8.56907 16.061 9.01946 16.04C9.46007 16.021 9.81255 15.641 9.79297 15.181C9.78318 14.731 9.4209 14.38 8.9803 14.38C8.5299 14.401 8.17742 14.78 8.17742 15.24ZM4.14343 15.24C4.16302 15.7 4.53508 16.061 4.98548 16.04C5.42608 16.021 5.77857 15.641 5.75899 15.181C5.74919 14.731 5.38692 14.38 4.94631 14.38C4.49592 14.401 4.14343 14.78 4.14343 15.24ZM12.2114 11.601C12.2114 11.141 12.5639 10.771 13.0143 10.761C13.4549 10.761 13.8074 11.12 13.827 11.561C13.8367 12.021 13.4843 12.401 13.0437 12.41C12.5933 12.42 12.2212 12.07 12.2114 11.611V11.601ZM13.4158 3.82C13.4158 4.261 13.0829 4.59 12.6619 4.59C12.2311 4.59 11.908 4.261 11.908 3.82V0.771C11.908 0.33 12.2311 0 12.6619 0C13.0829 0 13.4158 0.33 13.4158 0.771V3.82Z" fill="#CDCDD0"/>
</svg>
