<svg width="20" height="21" viewBox="0 0 20 21" fill="none" xmlns="http://www.w3.org/2000/svg">
<path d="M19.2734 10.75C19.2734 5.77944 15.244 1.75 10.2734 1.75C5.30288 1.75 1.27344 5.77944 1.27344 10.75C1.27344 15.2422 4.56461 18.9655 8.86719 19.6406V13.3516H6.58203V10.75H8.86719V8.76719C8.86719 6.51156 10.2108 5.26562 12.2666 5.26562C13.2513 5.26562 14.2812 5.44141 14.2812 5.44141V7.65625H13.1464C12.0284 7.65625 11.6797 8.35 11.6797 9.06175V10.75H14.1758L13.7768 13.3516H11.6797V19.6406C15.9823 18.9655 19.2734 15.2422 19.2734 10.75Z" fill="#3843FF"/>
<path d="M13.7768 13.3516L14.1758 10.75H11.6797V9.06175C11.6797 8.35 12.0284 7.65625 13.1464 7.65625H14.2812V5.44141C14.2812 5.44141 13.2513 5.26562 12.2666 5.26562C10.2108 5.26562 8.86719 6.51156 8.86719 8.76719V10.75H6.58203V13.3516H8.86719V19.6406C9.79902 19.7865 10.7479 19.7865 11.6797 19.6406V13.3516H13.7768Z" fill="white"/>
</svg>
