<svg width="269" height="81" viewBox="0 0 269 81" fill="none" xmlns="http://www.w3.org/2000/svg">
<g clip-path="url(#clip0_636_10446)">
<path d="M68 1.32735C68.6188 0.970085 69.3812 0.970085 70 1.32735L74.9282 4.17265C75.547 4.52992 75.9282 5.19017 75.9282 5.9047V11.5953C75.9282 12.3098 75.547 12.9701 74.9282 13.3274L70 16.1726C69.3812 16.5299 68.6188 16.5299 68 16.1726L63.0718 13.3274C62.453 12.9701 62.0718 12.3098 62.0718 11.5953V5.9047C62.0718 5.19017 62.453 4.52992 63.0718 4.17265L68 1.32735Z" fill="#EBECFF"/>
<circle cx="72" cy="76.75" r="4" fill="#D7D9FF"/>
<circle cx="6.5" cy="50.25" r="6.5" fill="#AFB4FF"/>
</g>
<defs>
<clipPath id="clip0_636_10446">
<rect width="269" height="80" fill="white" transform="translate(0 0.75)"/>
</clipPath>
</defs>
</svg>
