<svg width="313" height="99" viewBox="0 0 313 99" fill="none" xmlns="http://www.w3.org/2000/svg">
<g clip-path="url(#clip0_674_11941)">
<path d="M0 3H313" stroke="#EAECF0" stroke-linecap="round" stroke-dasharray="4 4"/>
<path d="M0 27H313" stroke="#EAECF0" stroke-linecap="round" stroke-dasharray="4 4"/>
<path d="M0 51H313" stroke="#EAECF0" stroke-linecap="round" stroke-dasharray="4 4"/>
<path d="M0 75H313" stroke="#EAECF0" stroke-linecap="round" stroke-dasharray="4 4"/>
<path d="M0 99H313" stroke="#EAECF0" stroke-linecap="round" stroke-dasharray="4 4"/>
<path d="M41.4852 43.8589C19.5625 43.8589 0 59.8613 0 59.8613V98.9528H286.741V23.5084V8.61777C257.747 2.05233 253.7 49.9831 228.229 49.9831C209.52 49.9832 208.228 20.0339 183.282 17.304C158.336 14.574 147.084 83.3498 106.869 82.5745C76.7442 81.9937 58.4267 43.8589 41.4852 43.8589Z" fill="url(#paint0_linear_674_11941)"/>
<path d="M0.521484 59.7C0.521484 59.7 19.5623 43.8431 41.485 43.8431C59.7306 43.8431 76.744 81.9144 106.869 82.4943C147.083 83.2683 158.336 14.607 183.282 17.3324C208.228 20.0578 209.52 49.9572 228.229 49.9571C253.7 49.9571 257.747 2.10618 286.741 8.66068" stroke="url(#paint1_linear_674_11941)" stroke-width="2" stroke-linecap="round"/>
<path opacity="0.3" d="M285 8C285 6.89543 285.895 6 287 6C288.105 6 289 6.89543 289 8V99H285V8Z" fill="url(#paint2_linear_674_11941)"/>
<g filter="url(#filter0_d_674_11941)">
<circle cx="287" cy="8" r="8" fill="#3843FF"/>
<circle cx="287" cy="8" r="6" stroke="white" stroke-width="4"/>
</g>
</g>
<defs>
<filter id="filter0_d_674_11941" x="254" y="-20" width="66" height="66" filterUnits="userSpaceOnUse" color-interpolation-filters="sRGB">
<feFlood flood-opacity="0" result="BackgroundImageFix"/>
<feColorMatrix in="SourceAlpha" type="matrix" values="0 0 0 0 0 0 0 0 0 0 0 0 0 0 0 0 0 0 127 0" result="hardAlpha"/>
<feOffset dy="5"/>
<feGaussianBlur stdDeviation="12.5"/>
<feColorMatrix type="matrix" values="0 0 0 0 0 0 0 0 0 0 0 0 0 0 0 0 0 0 0.1 0"/>
<feBlend mode="normal" in2="BackgroundImageFix" result="effect1_dropShadow_674_11941"/>
<feBlend mode="normal" in="SourceGraphic" in2="effect1_dropShadow_674_11941" result="shape"/>
</filter>
<linearGradient id="paint0_linear_674_11941" x1="156.5" y1="8" x2="156.5" y2="155.432" gradientUnits="userSpaceOnUse">
<stop stop-color="#B09FFF" stop-opacity="0.3"/>
<stop offset="1" stop-color="#8D79F6" stop-opacity="0"/>
</linearGradient>
<linearGradient id="paint1_linear_674_11941" x1="0.521484" y1="8.04395" x2="36.8043" y2="147.519" gradientUnits="userSpaceOnUse">
<stop stop-color="#6B73FF"/>
<stop offset="1" stop-color="#000DFF"/>
</linearGradient>
<linearGradient id="paint2_linear_674_11941" x1="285" y1="6" x2="292.985" y2="6.34345" gradientUnits="userSpaceOnUse">
<stop stop-color="#6B73FF"/>
<stop offset="1" stop-color="#000DFF"/>
</linearGradient>
<clipPath id="clip0_674_11941">
<rect width="313" height="99" fill="white"/>
</clipPath>
</defs>
</svg>
