<svg width="175" height="20" viewBox="0 0 175 20" fill="none" xmlns="http://www.w3.org/2000/svg">
<path fill-rule="evenodd" clip-rule="evenodd" d="M101.855 16.0238C98.2203 15.9348 76.072 15.9348 72.4372 16.0238C69.3299 16.106 65.9697 16.2974 65.9697 16.717C66.1504 17.1173 68.1954 17.4707 71.0281 17.6948L71.0208 17.6956C74.6845 18.0229 78.9841 18.2311 83.486 18.3058C85.8851 18.3435 88.3276 18.3418 90.8134 18.3058C95.3081 18.2311 99.6077 18.0229 103.271 17.6956L103.264 17.6948C106.097 17.4707 108.142 17.1173 108.322 16.717C108.322 16.2974 104.962 16.106 101.855 16.0238" fill="white"/>
<path fill-rule="evenodd" clip-rule="evenodd" d="M143.741 9.70453C138.429 8.99366 136.016 8.37763 136.016 7.33104V6.97519C136.016 5.61136 133.277 4.73264 127.323 3.85391C118.145 2.48924 102.696 1.66675 87.5714 1.66675H86.9283C72.1218 1.66675 57.1563 2.45147 47.8201 3.76075C41.5405 4.6571 38.4838 5.57359 38.4838 6.97519V7.33104C38.4838 8.37763 36.2292 8.99366 30.759 9.70453C26.734 10.2282 25.4478 10.9013 25.4478 11.6298C25.4478 12.3592 27.5361 13.0499 31.7273 13.6114C37.1976 14.2845 44.9224 14.7142 52.8134 14.7889C64.238 14.9383 75.6626 14.9945 87.2535 14.9945C98.8371 14.9945 110.262 14.9005 121.694 14.7889C129.577 14.7142 137.302 14.2845 142.772 13.6114C146.956 13.0499 149.052 12.3592 149.052 11.6298C149.052 10.9013 147.766 10.2282 143.741 9.70453" fill="white"/>
</svg>
