<svg width="17" height="17" viewBox="0 0 17 17" fill="none" xmlns="http://www.w3.org/2000/svg">
<path fill-rule="evenodd" clip-rule="evenodd" d="M5.0072 6.66085C5.83837 5.89586 6.94795 5.42871 8.16664 5.42871C9.38533 5.42871 10.4949 5.89586 11.3261 6.66085L13.3733 2.90756C13.7368 2.24119 13.2545 1.42871 12.4954 1.42871H10.2846C9.80033 1.42871 9.35417 1.69123 9.11901 2.11452L8.16662 3.82882L7.21423 2.11452C6.97907 1.69123 6.53291 1.42871 6.04869 1.42871H3.83784C3.07878 1.42871 2.59647 2.24119 2.95994 2.90756L5.0072 6.66085Z" fill="#FFCD6D"/>
<path d="M12.8333 10.0954C12.8333 12.6727 10.744 14.762 8.16667 14.762C5.58934 14.762 3.5 12.6727 3.5 10.0954C3.5 7.51805 5.58934 5.42871 8.16667 5.42871C10.744 5.42871 12.8333 7.51805 12.8333 10.0954Z" fill="#FEA800"/>
<path fill-rule="evenodd" clip-rule="evenodd" d="M8.16634 11.4284C8.90272 11.4284 9.49967 10.8314 9.49967 10.0951C9.49967 9.35867 8.90272 8.76172 8.16634 8.76172C7.42996 8.76172 6.83301 9.35867 6.83301 10.0951C6.83301 10.8314 7.42996 11.4284 8.16634 11.4284Z" fill="#FFCD6D"/>
</svg>
