<svg width="16" height="16" viewBox="0 0 16 16" fill="none" xmlns="http://www.w3.org/2000/svg">
<rect width="16" height="16" rx="8" fill="white"/>
<path fill-rule="evenodd" clip-rule="evenodd" d="M12.0861 7.14509C12.0821 7.14613 12.0781 7.14716 12.0741 7.14796C12.0696 7.14885 12.0652 7.14946 12.0607 7.15007C12.0592 7.15026 12.0578 7.15046 12.0564 7.15067C12.0515 7.15136 12.0467 7.15228 12.0418 7.15276C12.0309 7.15385 12.0199 7.15443 12.0089 7.15443H10.008C9.82379 7.15443 9.67448 7.00512 9.67448 6.82094C9.67448 6.63676 9.82379 6.48745 10.008 6.48745H11.2038L10.3582 5.64188C9.055 4.34155 6.94514 4.34155 5.64195 5.64188C5.51171 5.77213 5.30054 5.77213 5.1703 5.64188C5.04005 5.51164 5.04005 5.30047 5.1703 5.17023C6.73419 3.60993 9.26595 3.60993 10.8298 5.17023L11.6754 6.01579V4.82C11.6754 4.63582 11.8247 4.48651 12.0089 4.48651C12.1931 4.48651 12.3424 4.63582 12.3424 4.82V6.82073C12.3424 6.83182 12.3418 6.84291 12.3407 6.85395C12.3404 6.85677 12.34 6.85954 12.3396 6.86231C12.3393 6.86393 12.339 6.86555 12.3388 6.86717C12.3387 6.86836 12.3385 6.86955 12.3383 6.87074C12.3376 6.87592 12.3369 6.88109 12.3359 6.88623C12.3352 6.88989 12.3343 6.89346 12.3333 6.89704C12.3329 6.89856 12.3325 6.90009 12.3322 6.90163C12.3318 6.90304 12.3315 6.90445 12.3311 6.90586C12.3301 6.90989 12.3292 6.91391 12.328 6.91789C12.3269 6.92147 12.3256 6.92496 12.3243 6.92844C12.3238 6.92986 12.3233 6.93127 12.3228 6.9327C12.3209 6.93806 12.3191 6.94344 12.3169 6.94872C12.3156 6.95182 12.3142 6.95483 12.3127 6.95784C12.3121 6.9592 12.3114 6.96055 12.3108 6.96192C12.3103 6.96298 12.3098 6.96406 12.3093 6.96513C12.3073 6.96956 12.3052 6.97399 12.3029 6.97833C12.3019 6.98023 12.3008 6.98209 12.2997 6.98393C12.2984 6.986 12.2971 6.98805 12.2959 6.99013C12.2953 6.99124 12.2946 6.99236 12.294 6.99347C12.2914 6.99779 12.2889 7.00211 12.2861 7.00631C12.2842 7.00911 12.2822 7.01178 12.2802 7.01446C12.2792 7.01573 12.2782 7.01699 12.2773 7.01827C12.2763 7.01956 12.2754 7.02086 12.2745 7.02216C12.2719 7.02565 12.2694 7.02914 12.2667 7.03251C12.2621 7.03804 12.2572 7.04325 12.2523 7.04846L12.2513 7.04945C12.2504 7.05049 12.2494 7.05156 12.2485 7.05263C12.2473 7.05403 12.2461 7.05543 12.2447 7.05677C12.2435 7.05804 12.2421 7.0592 12.2408 7.06036C12.2397 7.06127 12.2387 7.06218 12.2377 7.06314L12.2372 7.06362C12.2317 7.06878 12.2262 7.07394 12.2204 7.07871C12.2173 7.0813 12.214 7.08367 12.2107 7.08604C12.2094 7.087 12.2081 7.08797 12.2067 7.08895C12.2055 7.0899 12.2042 7.09087 12.2029 7.09184C12.2 7.094 12.1972 7.09617 12.1942 7.09817C12.1891 7.10157 12.1839 7.10453 12.1786 7.10762C12.1774 7.10839 12.1761 7.10916 12.1748 7.10994C12.172 7.11167 12.1691 7.1134 12.1662 7.11497C12.1621 7.11714 12.158 7.11906 12.1539 7.12098C12.1527 7.12151 12.1516 7.12204 12.1504 7.12257C12.1458 7.12474 12.1413 7.12704 12.1366 7.129C12.1328 7.13055 12.129 7.13188 12.1252 7.13321C12.1239 7.13367 12.1226 7.13414 12.1213 7.13461C12.1199 7.13508 12.1186 7.13557 12.1173 7.13605C12.1135 7.13745 12.1097 7.13884 12.1058 7.14003C12.1021 7.14114 12.0984 7.14203 12.0947 7.14293C12.0933 7.14327 12.0918 7.14362 12.0904 7.14398C12.089 7.14434 12.0875 7.14472 12.0861 7.14509ZM5.64192 10.3581C6.94511 11.6584 9.05496 11.6584 10.3582 10.3581C10.4884 10.2279 10.6996 10.2279 10.8298 10.3581C10.9601 10.4884 10.9601 10.6995 10.8298 10.8298C9.26592 12.3901 6.73416 12.3901 5.17026 10.8298L4.32469 9.9842V11.18C4.32469 11.3642 4.17539 11.5135 3.9912 11.5135C3.80702 11.5135 3.65771 11.3642 3.65771 11.18V9.17926C3.65771 9.16817 3.65827 9.15708 3.65938 9.14604C3.65966 9.14322 3.6601 9.14045 3.66054 9.13768C3.6608 9.13607 3.66106 9.13445 3.66129 9.13282C3.66145 9.13162 3.66161 9.13043 3.66178 9.12923C3.66248 9.12406 3.66318 9.11889 3.6642 9.11376C3.66492 9.11011 3.66585 9.10654 3.66677 9.10297C3.66717 9.10144 3.66757 9.0999 3.66795 9.09836C3.6683 9.09695 3.66865 9.09553 3.66899 9.09411C3.66996 9.09009 3.67093 9.08607 3.67213 9.0821C3.67322 9.07852 3.67449 9.07504 3.67577 9.07155C3.67629 9.07014 3.67681 9.06872 3.67731 9.06729C3.67775 9.06607 3.67817 9.06485 3.6786 9.06363C3.68005 9.05949 3.68149 9.05535 3.68318 9.05127C3.68447 9.04816 3.68592 9.04515 3.68738 9.04212C3.68802 9.04078 3.68867 9.03943 3.6893 9.03807C3.6898 9.03701 3.69029 9.03595 3.69078 9.03489C3.69283 9.03045 3.69489 9.02601 3.69721 9.02166C3.69864 9.019 3.70021 9.01643 3.70177 9.01386C3.70258 9.01253 3.70339 9.0112 3.70418 9.00986C3.70484 9.00875 3.70549 9.00763 3.70614 9.00652C3.70867 9.0022 3.7112 8.99788 3.71401 8.99368C3.71589 8.99088 3.71791 8.98821 3.71994 8.98554C3.7209 8.98427 3.72186 8.983 3.72281 8.98172C3.72376 8.98043 3.7247 8.97913 3.72565 8.97782C3.72817 8.97433 3.73069 8.97085 3.73345 8.96748C3.738 8.96195 3.74292 8.95673 3.74784 8.95152L3.74876 8.95054C3.74974 8.9495 3.75067 8.94843 3.7516 8.94736C3.75282 8.94596 3.75404 8.94456 3.75538 8.94322C3.75663 8.94197 3.75794 8.94083 3.75925 8.93969C3.76028 8.9388 3.7613 8.93791 3.7623 8.93697L3.76279 8.93651C3.7683 8.93129 3.77382 8.92608 3.77968 8.92127C3.78276 8.91874 3.78594 8.91644 3.78912 8.91413C3.79045 8.91317 3.79177 8.91222 3.79309 8.91124C3.79434 8.91032 3.79558 8.90938 3.79681 8.90844C3.79981 8.90617 3.8028 8.9039 3.80594 8.9018C3.80969 8.89929 3.81356 8.89702 3.81742 8.89475C3.81863 8.89405 3.81983 8.89334 3.82103 8.89263C3.82231 8.89186 3.82359 8.89109 3.82486 8.89031C3.82787 8.88848 3.83088 8.88665 3.83399 8.88498C3.83769 8.883 3.84147 8.88124 3.84525 8.87949C3.84651 8.87891 3.84776 8.87833 3.84901 8.87774C3.85027 8.87714 3.85153 8.87654 3.85279 8.87593C3.85638 8.8742 3.85996 8.87248 3.86366 8.87094C3.867 8.86956 3.8704 8.86837 3.87379 8.86718C3.87517 8.8667 3.87654 8.86622 3.87791 8.86573C3.87911 8.86529 3.88031 8.86485 3.88151 8.86441C3.88583 8.86283 3.89013 8.86125 3.89455 8.85991C3.89764 8.85898 3.90076 8.85822 3.90388 8.85747C3.90537 8.8571 3.90687 8.85674 3.90836 8.85636C3.90967 8.85602 3.91097 8.85568 3.91228 8.85534C3.91689 8.85414 3.9215 8.85293 3.92622 8.852C3.9297 8.85131 3.9332 8.85083 3.93671 8.85035C3.9383 8.85013 3.9399 8.84991 3.94149 8.84967C3.94312 8.84942 3.94474 8.84916 3.94636 8.8489C3.95039 8.84826 3.95441 8.84761 3.95851 8.84721C3.96693 8.84639 3.97538 8.84612 3.98382 8.84593C3.98495 8.84591 3.98606 8.84583 3.98717 8.84575C3.98851 8.84566 3.98984 8.84556 3.9912 8.84556H5.99214C6.17632 8.84556 6.32563 8.99487 6.32563 9.17905C6.32563 9.36323 6.17632 9.51254 5.99214 9.51254H4.79635L5.64192 10.3581Z" fill="#3843FF"/>
</svg>
