<svg width="16" height="17" viewBox="0 0 16 17" fill="none" xmlns="http://www.w3.org/2000/svg">
<path fill-rule="evenodd" clip-rule="evenodd" d="M9.33917 13.5689C9.0059 13.4977 6.97511 13.4977 6.64183 13.5689C6.35693 13.6347 6.04883 13.7878 6.04883 14.1235C6.06539 14.4437 6.2529 14.7264 6.51263 14.9057L6.51197 14.9064C6.84789 15.1682 7.24212 15.3347 7.65491 15.3945C7.87488 15.4247 8.09883 15.4234 8.32676 15.3945C8.73888 15.3347 9.13311 15.1682 9.46904 14.9064L9.46837 14.9057C9.7281 14.7264 9.91561 14.4437 9.93218 14.1235C9.93218 13.7878 9.62408 13.6347 9.33917 13.5689" fill="#040415"/>
<path fill-rule="evenodd" clip-rule="evenodd" d="M13.1798 8.51354C12.6928 7.94484 12.4715 7.45202 12.4715 6.61475V6.33007C12.4715 5.239 12.2204 4.53602 11.6745 3.83304C10.833 2.74131 9.41642 2.08331 8.02965 2.08331H7.97068C6.61306 2.08331 5.24087 2.71109 4.38483 3.75851C3.80905 4.4756 3.52878 5.20879 3.52878 6.33007V6.61475C3.52878 7.45202 3.32206 7.94484 2.82049 8.51354C2.45143 8.9325 2.3335 9.47099 2.3335 10.0538C2.3335 10.6372 2.52498 11.1898 2.90927 11.639C3.41084 12.1775 4.11913 12.5213 4.84266 12.581C5.89019 12.7005 6.93772 12.7455 8.00049 12.7455C9.0626 12.7455 10.1101 12.6703 11.1583 12.581C11.8812 12.5213 12.5895 12.1775 13.0911 11.639C13.4747 11.1898 13.6668 10.6372 13.6668 10.0538C13.6668 9.47099 13.5489 8.9325 13.1798 8.51354" fill="#CDCDD0"/>
</svg>
