<svg width="24" height="24" viewBox="0 0 24 24" fill="none" xmlns="http://www.w3.org/2000/svg">
<path fill-rule="evenodd" clip-rule="evenodd" d="M16.1887 2H7.59694C4.23814 2 1.98242 4.378 1.98242 7.917V16.084C1.98242 19.622 4.23814 22 7.59694 22H16.1877C19.5465 22 21.8042 19.622 21.8042 16.084V7.917C21.8042 4.378 19.5475 2 16.1887 2Z" fill="#CDCDD0"/>
<path fill-rule="evenodd" clip-rule="evenodd" d="M11.2134 11.2484H16.8627C17.269 11.2484 17.606 11.5884 17.606 11.9984V13.8484C17.606 14.2684 17.269 14.5984 16.8627 14.5984C16.4464 14.5984 16.1193 14.2684 16.1193 13.8484V12.7484H14.8012V13.8484C14.8012 14.2684 14.4642 14.5984 14.0579 14.5984C13.6416 14.5984 13.3146 14.2684 13.3146 13.8484V12.7484H11.2134C10.8963 13.8184 9.92503 14.5984 8.76545 14.5984C7.33829 14.5984 6.17871 13.4384 6.17871 11.9984C6.17871 10.5684 7.33829 9.39844 8.76545 9.39844C9.92503 9.39844 10.8963 10.1784 11.2134 11.2484ZM7.66534 11.9984C7.66534 12.6084 8.16089 13.0984 8.76545 13.0984C9.36011 13.0984 9.85565 12.6084 9.85565 11.9984C9.85565 11.3884 9.36011 10.8984 8.76545 10.8984C8.16089 10.8984 7.66534 11.3884 7.66534 11.9984Z" fill="#040415"/>
</svg>
