<svg width="175" height="16" viewBox="0 0 175 16" fill="none" xmlns="http://www.w3.org/2000/svg">
<path fill-rule="evenodd" clip-rule="evenodd" d="M101.855 12.819C98.2203 12.7478 76.072 12.7478 72.4372 12.819C69.3299 12.8848 65.9697 13.0379 65.9697 13.3736C66.1504 13.6939 68.1954 13.9765 71.0281 14.1558L71.0208 14.1565C74.6845 14.4183 78.9841 14.5848 83.486 14.6446C85.8851 14.6748 88.3276 14.6735 90.8134 14.6446C95.3081 14.5848 99.6077 14.4183 103.271 14.1565L103.264 14.1558C106.097 13.9765 108.142 13.6939 108.322 13.3736C108.322 13.0379 104.962 12.8848 101.855 12.819" fill="#040415"/>
<path fill-rule="evenodd" clip-rule="evenodd" d="M143.741 7.76348C138.429 7.19478 136.016 6.70195 136.016 5.86469V5.58001C136.016 4.48894 133.277 3.78596 127.323 3.08298C118.145 1.99125 102.696 1.33325 87.5714 1.33325H86.9283C72.1218 1.33325 57.1563 1.96103 47.8201 3.00845C41.5405 3.72553 38.4838 4.45873 38.4838 5.58001V5.86469C38.4838 6.70195 36.2292 7.19478 30.759 7.76348C26.734 8.18244 25.4478 8.72093 25.4478 9.30372C25.4478 9.88719 27.5361 10.4398 31.7273 10.889C37.1976 11.4274 44.9224 11.7712 52.8134 11.831C64.238 11.9505 75.6626 11.9955 87.2535 11.9955C98.8371 11.9955 110.262 11.9203 121.694 11.831C129.577 11.7712 137.302 11.4274 142.772 10.889C146.956 10.4398 149.052 9.88719 149.052 9.30372C149.052 8.72093 147.766 8.18244 143.741 7.76348" fill="#CDCDD0"/>
</svg>
