<svg width="16" height="16" viewBox="0 0 16 16" fill="none" xmlns="http://www.w3.org/2000/svg">
<path fill-rule="evenodd" clip-rule="evenodd" d="M12.0879 6.01133C12.2571 6.01276 12.4076 6.01404 12.5394 6.01404C12.6877 6.01404 12.9045 6.01231 13.1195 6.0106C13.203 6.00993 13.2863 6.00927 13.3652 6.00871C13.5328 6.00804 13.6668 6.14471 13.6668 6.31404V11.668C13.6668 13.3247 12.3374 14.6667 10.6977 14.6667H5.44655C3.72698 14.6667 2.3335 13.2594 2.3335 11.5227V4.33937C2.3335 2.68404 3.66361 1.33337 5.30925 1.33337H8.83553C9.00253 1.33337 9.13719 1.47071 9.13719 1.63937V3.78337C9.13719 5.00537 10.1326 6.00737 11.3433 6.00737C11.6223 6.00737 11.8705 6.00948 12.0879 6.01133ZM10.1755 1.93424C10.1755 1.64691 10.5235 1.50424 10.7228 1.71157C11.1845 2.19121 11.8667 2.90084 12.4824 3.54131C12.8285 3.90143 13.1537 4.23969 13.4068 4.50291C13.6015 4.70557 13.4588 5.04091 13.1782 5.04157C12.6302 5.04291 11.9848 5.04157 11.5202 5.03624C10.7828 5.03624 10.1755 4.42957 10.1755 3.69224V1.93424Z" fill="white"/>
<path fill-rule="evenodd" clip-rule="evenodd" d="M5.98282 7.59179H8.23948C8.51348 7.59179 8.73615 7.36979 8.73615 7.09579C8.73615 6.82179 8.51348 6.59912 8.23948 6.59912H5.98282C5.70882 6.59912 5.48682 6.82179 5.48682 7.09579C5.48682 7.36979 5.70882 7.59179 5.98282 7.59179ZM5.98288 10.9213H9.61222C9.88622 10.9213 10.1089 10.6993 10.1089 10.4253C10.1089 10.1513 9.88622 9.92859 9.61222 9.92859H5.98288C5.70888 9.92859 5.48688 10.1513 5.48688 10.4253C5.48688 10.6993 5.70888 10.9213 5.98288 10.9213Z" fill="#3843FF"/>
</svg>
