<svg width="21" height="21" viewBox="0 0 21 21" fill="none" xmlns="http://www.w3.org/2000/svg">
<path d="M19.2266 10.95C19.2266 10.21 19.1653 9.67 19.0327 9.11001H10.4102V12.45H15.4714C15.3694 13.28 14.8184 14.53 13.5939 15.37L13.5767 15.4818L16.303 17.5515L16.4919 17.57C18.2265 16 19.2266 13.69 19.2266 10.95Z" fill="#3843FF"/>
<path d="M10.4102 19.75C12.8898 19.75 14.9714 18.95 16.4919 17.57L13.5939 15.37C12.8184 15.9 11.7776 16.27 10.4102 16.27C7.98168 16.27 5.92047 14.7 5.18571 12.53L5.07801 12.539L2.2432 14.689L2.20613 14.79C3.71632 17.7299 6.81837 19.75 10.4102 19.75Z" fill="#3BA935"/>
<path d="M5.18571 12.53C4.99183 11.97 4.87963 11.37 4.87963 10.75C4.87963 10.13 4.99183 9.52998 5.17551 8.96999L5.17037 8.85073L2.30004 6.66619L2.20613 6.70996C1.58371 7.92998 1.22656 9.3 1.22656 10.75C1.22656 12.2 1.58371 13.57 2.20613 14.79L5.18571 12.53Z" fill="#FEA800"/>
<path d="M10.4102 5.22998C12.1347 5.22998 13.2979 5.95997 13.9612 6.57001L16.5531 4.09C14.9613 2.64 12.8898 1.75 10.4102 1.75C6.81837 1.75 3.71632 3.76998 2.20613 6.70996L5.17551 8.96999C5.92047 6.8 7.98168 5.22998 10.4102 5.22998Z" fill="#E3524F"/>
</svg>
