<svg width="24" height="24" viewBox="0 0 24 24" fill="none" xmlns="http://www.w3.org/2000/svg">
<path fill-rule="evenodd" clip-rule="evenodd" d="M19.118 3.22107C19.5317 2.92475 20.1001 3.03319 20.3839 3.45726C21.9386 5.76657 22.7949 8.80164 22.7949 11.9999C22.7949 15.2003 21.9386 18.2343 20.3839 20.5436C20.2145 20.7959 19.9349 20.9473 19.6366 20.9473C19.4516 20.9473 19.2729 20.8893 19.1191 20.7798C18.7075 20.4824 18.6057 19.8973 18.8904 19.4722C20.2352 17.4731 20.9762 14.8192 20.9762 11.9999C20.9762 9.18169 20.2352 6.52776 18.8904 4.52871C18.6057 4.10464 18.7075 3.51845 19.118 3.22107ZM15.9845 6.25839C16.3992 5.96315 16.9655 6.06944 17.2513 6.49458C18.2553 7.98689 18.8092 9.94191 18.8092 12C18.8092 14.0581 18.2553 16.0131 17.2513 17.5054C17.0809 17.7577 16.8024 17.9091 16.5041 17.9091C16.3191 17.9091 16.1393 17.8511 15.9855 17.7416C15.574 17.4442 15.4721 16.858 15.7579 16.434C16.553 15.2519 16.9905 13.677 16.9905 12C16.9905 10.322 16.553 8.74807 15.7579 7.56603C15.4721 7.14196 15.574 6.55578 15.9845 6.25839Z" fill="#CDCDD0"/>
<path fill-rule="evenodd" clip-rule="evenodd" d="M13.2382 6.45056C13.1883 5.96422 13.1363 5.45963 13.0085 4.95611C12.6604 3.75153 11.6959 3.00001 10.6619 3.00001C10.0851 2.99786 9.35555 3.35644 8.94192 3.71932L5.51342 6.61697H3.71863C2.39774 6.61697 1.33563 7.6444 1.13505 9.12705C0.964611 10.5506 0.923041 13.2379 1.13505 14.8042C1.319 16.3706 2.33331 17.383 3.71863 17.383H5.51342L9.00843 20.3236C9.36698 20.6382 9.99988 20.9989 10.5819 20.9989C10.6193 21 10.6525 21 10.6858 21C11.7396 21 12.6676 20.2206 13.0158 19.0192C13.1478 18.5082 13.1935 18.0293 13.2382 17.5666L13.285 17.1082C13.4637 15.6213 13.4637 8.36908 13.285 6.89288L13.2382 6.45056Z" fill="#040415"/>
</svg>
