<svg width="24" height="24" viewBox="0 0 24 24" fill="none" xmlns="http://www.w3.org/2000/svg">
<path fill-rule="evenodd" clip-rule="evenodd" d="M11.9782 22C11.8555 22 11.7338 21.9716 11.623 21.9137L8.05379 20.0496C7.04 19.5201 6.24773 18.9259 5.63008 18.2336C4.27503 16.7195 3.52267 14.776 3.5097 12.7599L3.46879 6.12426C3.4638 5.35842 3.95273 4.67103 4.68514 4.41215L11.2388 2.10679C11.629 1.96656 12.0631 1.9646 12.4582 2.09992L19.0368 4.32684C19.7732 4.57493 20.2712 5.25742 20.2751 6.02228L20.3171 12.6628C20.33 14.676 19.6036 16.6274 18.2705 18.1581C17.6579 18.8602 16.8736 19.4632 15.8707 20.0025L12.3335 21.9088C12.2237 21.9686 12.101 21.999 11.9782 22" fill="#F7CECD"/>
<path fill-rule="evenodd" clip-rule="evenodd" d="M12.9513 11.7249L14.2973 10.4021C14.5897 10.1148 14.5897 9.65001 14.2973 9.3627C14.005 9.07539 13.531 9.07539 13.2386 9.3627L11.8926 10.6845L10.5475 9.3627C10.2551 9.07539 9.78117 9.07539 9.4888 9.3627C9.19644 9.65001 9.19644 10.1148 9.4888 10.4021L10.8349 11.7249L9.4888 13.0478C9.19644 13.3351 9.19644 13.7999 9.4888 14.0872C9.63548 14.2313 9.82707 14.3029 10.0186 14.3029C10.2092 14.3029 10.4008 14.2313 10.5475 14.0872L11.8926 12.7653L13.2386 14.0872C13.3853 14.2313 13.5759 14.3029 13.7675 14.3029C13.9591 14.3029 14.1506 14.2313 14.2973 14.0872C14.5897 13.7999 14.5897 13.3351 14.2973 13.0478L12.9513 11.7249Z" fill="#E3524F"/>
</svg>
