<svg width="20" height="21" viewBox="0 0 20 21" fill="none" xmlns="http://www.w3.org/2000/svg">
<path fill-rule="evenodd" clip-rule="evenodd" d="M6.08008 6.12169C6.08008 4.07919 7.79657 2.41669 9.90627 2.41669H14.0999C16.2044 2.41669 17.9166 4.07502 17.9166 6.11335V15.3767C17.9166 17.42 16.201 19.0834 14.0913 19.0834H9.89767C7.79313 19.0834 6.08008 17.4242 6.08008 15.385V14.6017V6.12169Z" fill="#CDCDD0"/>
<path fill-rule="evenodd" clip-rule="evenodd" d="M13.3647 10.2948L10.8914 7.87064C10.6358 7.62064 10.2244 7.62064 9.96965 7.87231C9.71572 8.12398 9.71656 8.52981 9.97134 8.77981L11.3256 10.1073H2.73524C2.37551 10.1073 2.0835 10.3948 2.0835 10.7498C2.0835 11.104 2.37551 11.3906 2.73524 11.3906H11.3256L9.97134 12.719C9.71656 12.969 9.71572 13.3748 9.96965 13.6265C10.0975 13.7523 10.2642 13.8156 10.4318 13.8156C10.5977 13.8156 10.7644 13.7523 10.8914 13.6281L13.3647 11.204C13.4874 11.0831 13.5568 10.9198 13.5568 10.7498C13.5568 10.579 13.4874 10.4156 13.3647 10.2948" fill="#040415"/>
</svg>
