<svg width="24" height="24" viewBox="0 0 24 24" fill="none" xmlns="http://www.w3.org/2000/svg">
<path d="M2.97314 17.2747V9.4C2.97314 7.15979 2.97314 6.03969 3.40523 5.18404C3.78531 4.43139 4.39178 3.81947 5.13772 3.43597C5.98574 3 7.09587 3 9.31611 3H14.4698C16.69 3 17.8001 3 18.6482 3.43597C19.3941 3.81947 20.0006 4.43139 20.3807 5.18404C20.8127 6.03969 20.8127 7.15979 20.8127 9.4V10.6C20.8127 12.8402 20.8127 13.9603 20.3807 14.816C20.0006 15.5686 19.3941 16.1805 18.6482 16.564C17.8001 17 16.69 17 14.4698 17H10.2667C9.76997 17 9.52158 17 9.28851 17.0578C9.0819 17.109 8.88481 17.1935 8.70481 17.3079C8.50176 17.4371 8.32929 17.6174 7.98437 17.9781L7.06353 18.9411C5.78496 20.2782 5.14568 20.9468 4.59498 20.9975C4.11733 21.0415 3.64799 20.8503 3.33453 20.484C2.97314 20.0617 2.97314 19.1327 2.97314 17.2747Z" fill="#CDCDD0"/>
<path d="M7.92859 11C8.47595 11 8.91968 10.5523 8.91968 10C8.91968 9.44772 8.47595 9 7.92859 9C7.38123 9 6.9375 9.44772 6.9375 10C6.9375 10.5523 7.38123 11 7.92859 11Z" fill="#040415"/>
<path d="M12.884 10C12.884 10.5523 12.4403 11 11.8929 11C11.3456 11 10.9019 10.5523 10.9019 10C10.9019 9.44772 11.3456 9 11.8929 9C12.4403 9 12.884 9.44772 12.884 10Z" fill="#040415"/>
<path d="M16.8484 10C16.8484 10.5523 16.4047 11 15.8573 11C15.3099 11 14.8662 10.5523 14.8662 10C14.8662 9.44772 15.3099 9 15.8573 9C16.4047 9 16.8484 9.44772 16.8484 10Z" fill="#040415"/>
</svg>
