<svg width="128" height="17" viewBox="0 0 128 17" fill="none" xmlns="http://www.w3.org/2000/svg">
<path fill-rule="evenodd" clip-rule="evenodd" d="M74.7129 13.5689C72.0467 13.4977 55.8004 13.4977 53.1342 13.5689C50.8549 13.6347 48.3901 13.7878 48.3901 14.1235C48.5227 14.4437 50.0227 14.7264 52.1006 14.9057L52.0953 14.9064C54.7827 15.1682 57.9365 15.3347 61.2388 15.3945C62.9986 15.4247 64.7902 15.4234 66.6136 15.3945C69.9106 15.3347 73.0644 15.1682 75.7518 14.9064L75.7465 14.9057C77.8243 14.7264 79.3244 14.4437 79.4569 14.1235C79.4569 13.7878 76.9921 13.6347 74.7129 13.5689" fill="#040415"/>
<path fill-rule="evenodd" clip-rule="evenodd" d="M105.437 8.51354C101.541 7.94484 99.7709 7.45202 99.7709 6.61475V6.33007C99.7709 5.239 97.762 4.53602 93.3943 3.83304C86.6625 2.74131 75.3299 2.08331 64.2357 2.08331H63.764C52.903 2.08331 41.9255 2.71109 35.0771 3.75851C30.4709 4.4756 28.2288 5.20879 28.2288 6.33007V6.61475C28.2288 7.45202 26.575 7.94484 22.5624 8.51354C19.61 8.9325 18.6665 9.47099 18.6665 10.0538C18.6665 10.6372 20.1984 11.1898 23.2727 11.639C27.2853 12.1775 32.9516 12.5213 38.7399 12.581C47.1201 12.7005 55.5003 12.7455 64.0025 12.7455C72.4993 12.7455 80.8796 12.6703 89.2651 12.581C95.0481 12.5213 100.714 12.1775 104.727 11.639C107.796 11.1898 109.333 10.6372 109.333 10.0538C109.333 9.47099 108.39 8.9325 105.437 8.51354" fill="#CDCDD0"/>
</svg>
