<svg width="24" height="24" viewBox="0 0 24 24" fill="none" xmlns="http://www.w3.org/2000/svg">
<path fill-rule="evenodd" clip-rule="evenodd" d="M12.8609 3.11361L15.0676 7.58789C15.2301 7.91205 15.5404 8.13717 15.8983 8.18719L20.8548 8.91556C21.1442 8.95658 21.4069 9.11066 21.5844 9.34578C21.7598 9.5779 21.8352 9.87205 21.7925 10.1612C21.7579 10.4013 21.6458 10.6234 21.4743 10.7935L17.8829 14.3063C17.6202 14.5514 17.5012 14.9146 17.5646 15.2698L18.4489 20.2083C18.5431 20.8046 18.1515 21.3669 17.5646 21.48C17.3228 21.519 17.0749 21.478 16.8569 21.3659L12.4356 19.0417C12.1075 18.8746 11.7199 18.8746 11.3918 19.0417L6.9706 21.3659C6.42737 21.657 5.75427 21.4589 5.45192 20.9187C5.33991 20.7036 5.30026 20.4584 5.33693 20.2193L6.22118 15.2798C6.28462 14.9256 6.16467 14.5604 5.90297 14.3153L2.31148 10.8045C1.88423 10.3883 1.87134 9.70296 2.28273 9.27175C2.29165 9.26274 2.30157 9.25274 2.31148 9.24273C2.48198 9.06764 2.70602 8.95658 2.9479 8.92757L7.90441 8.1982C8.26127 8.14717 8.57155 7.92406 8.73512 7.59789L10.8625 3.11361C11.0518 2.72942 11.4443 2.4903 11.8706 2.5003H12.0034C12.3732 2.54533 12.6954 2.77644 12.8609 3.11361Z" fill="#040415"/>
</svg>
