<svg width="33" height="32" viewBox="0 0 33 32" fill="none" xmlns="http://www.w3.org/2000/svg">
<path fill-rule="evenodd" clip-rule="evenodd" d="M16.6145 29.3334C16.4494 29.3334 16.2856 29.2955 16.1366 29.2184L11.3349 26.7329C9.97099 26.0269 8.90512 25.2346 8.07418 24.3115C6.25121 22.2928 5.23904 19.7014 5.22159 17.0133L5.16655 8.16576C5.15984 7.14464 5.81762 6.22812 6.80293 5.88295L15.6198 2.80913C16.1447 2.62217 16.7286 2.61955 17.2602 2.79998L26.1106 5.7692C27.1013 6.09999 27.7711 7.00998 27.7765 8.02979L27.8329 16.8839C27.8503 19.5681 26.8731 22.1699 25.0796 24.2108C24.2554 25.147 23.2003 25.951 21.8512 26.6701L17.0924 29.2118C16.9447 29.2916 16.7796 29.3321 16.6145 29.3334" fill="#F7CECD"/>
<path fill-rule="evenodd" clip-rule="evenodd" d="M17.9238 15.6333L19.7347 13.8695C20.128 13.4864 20.128 12.8667 19.7347 12.4836C19.3414 12.1005 18.7037 12.1005 18.3104 12.4836L16.4995 14.246L14.69 12.4836C14.2967 12.1005 13.659 12.1005 13.2657 12.4836C12.8724 12.8667 12.8724 13.4864 13.2657 13.8695L15.0766 15.6333L13.2657 17.397C12.8724 17.7801 12.8724 18.3998 13.2657 18.7829C13.463 18.9751 13.7208 19.0705 13.9785 19.0705C14.2349 19.0705 14.4926 18.9751 14.69 18.7829L16.4995 17.0205L18.3104 18.7829C18.5077 18.9751 18.7641 19.0705 19.0219 19.0705C19.2796 19.0705 19.5374 18.9751 19.7347 18.7829C20.128 18.3998 20.128 17.7801 19.7347 17.397L17.9238 15.6333Z" fill="#E3524F"/>
</svg>
