<svg width="24" height="24" viewBox="0 0 24 24" fill="none" xmlns="http://www.w3.org/2000/svg">
<path fill-rule="evenodd" clip-rule="evenodd" d="M22 11.9999C22 17.5239 17.523 21.9999 12 21.9999C6.477 21.9999 2 17.5239 2 11.9999C2 6.47788 6.477 1.99988 12 1.99988C17.523 1.99988 22 6.47788 22 11.9999Z" fill="#EBECFF"/>
<path fill-rule="evenodd" clip-rule="evenodd" d="M15.5734 15.8144C15.4424 15.8144 15.3104 15.7804 15.1894 15.7094L11.2634 13.3674C11.0374 13.2314 10.8984 12.9864 10.8984 12.7224V7.67542C10.8984 7.26142 11.2344 6.92542 11.6484 6.92542C12.0624 6.92542 12.3984 7.26142 12.3984 7.67542V12.2964L15.9584 14.4194C16.3134 14.6324 16.4304 15.0924 16.2184 15.4484C16.0774 15.6834 15.8284 15.8144 15.5734 15.8144Z" fill="#3843FF"/>
</svg>
