<svg width="175" height="20" viewBox="0 0 175 20" fill="none" xmlns="http://www.w3.org/2000/svg">
<path fill-rule="evenodd" clip-rule="evenodd" d="M101.855 16.0236C98.2203 15.9347 76.072 15.9347 72.4372 16.0236C69.3299 16.1059 65.9697 16.2972 65.9697 16.7169C66.1504 17.1172 68.1954 17.4706 71.0281 17.6946L71.0208 17.6955C74.6845 18.0228 78.9841 18.2309 83.486 18.3056C85.8851 18.3434 88.3276 18.3417 90.8134 18.3056C95.3081 18.2309 99.6077 18.0228 103.271 17.6955L103.264 17.6946C106.097 17.4706 108.142 17.1172 108.322 16.7169C108.322 16.2972 104.962 16.1059 101.855 16.0236" fill="#040415"/>
<path fill-rule="evenodd" clip-rule="evenodd" d="M143.741 9.70441C138.429 8.99354 136.016 8.3775 136.016 7.33092V6.97507C136.016 5.61124 133.277 4.73251 127.323 3.85379C118.145 2.48912 102.696 1.66663 87.5714 1.66663H86.9283C72.1218 1.66663 57.1563 2.45135 47.8201 3.76063C41.5405 4.65698 38.4838 5.57347 38.4838 6.97507V7.33092C38.4838 8.3775 36.2292 8.99354 30.759 9.70441C26.734 10.2281 25.4478 10.9012 25.4478 11.6297C25.4478 12.359 27.5361 13.0498 31.7273 13.6113C37.1976 14.2844 44.9224 14.7141 52.8134 14.7888C64.238 14.9382 75.6626 14.9944 87.2535 14.9944C98.8371 14.9944 110.262 14.9004 121.694 14.7888C129.577 14.7141 137.302 14.2844 142.772 13.6113C146.956 13.0498 149.052 12.359 149.052 11.6297C149.052 10.9012 147.766 10.2281 143.741 9.70441" fill="#CDCDD0"/>
</svg>
