<svg width="151" height="20" viewBox="0 0 151 20" fill="none" xmlns="http://www.w3.org/2000/svg">
<path fill-rule="evenodd" clip-rule="evenodd" d="M87.8463 16.0238C84.7114 15.9348 65.6093 15.9348 62.4744 16.0238C59.7945 16.106 56.8965 16.2974 56.8965 16.717C57.0523 17.1173 58.816 17.4707 61.2591 17.6948L61.2529 17.6956C64.4127 18.0229 68.1209 18.2311 72.0037 18.3058C74.0728 18.3435 76.1793 18.3418 78.3233 18.3058C82.1998 18.2311 85.908 18.0229 89.0678 17.6956L89.0616 17.6948C91.5047 17.4707 93.2684 17.1173 93.4242 16.717C93.4242 16.2974 90.5262 16.106 87.8463 16.0238" fill="#040415"/>
<path fill-rule="evenodd" clip-rule="evenodd" d="M123.971 9.70453C119.39 8.99366 117.309 8.37763 117.309 7.33104V6.97519C117.309 5.61136 114.947 4.73264 109.811 3.85391C101.896 2.48924 88.5715 1.66675 75.5272 1.66675H74.9725C62.2024 1.66675 49.2953 2.45147 41.2431 3.76075C35.8272 4.6571 33.1909 5.57359 33.1909 6.97519V7.33104C33.1909 8.37763 31.2464 8.99366 26.5285 9.70453C23.0571 10.2282 21.9478 10.9013 21.9478 11.6298C21.9478 12.3592 23.7489 13.0499 27.3637 13.6114C32.0815 14.2845 38.7439 14.7142 45.5496 14.7889C55.403 14.9383 65.2563 14.9945 75.253 14.9945C85.2434 14.9945 95.0967 14.9005 104.956 14.7889C111.756 14.7142 118.418 14.2845 123.136 13.6114C126.745 13.0499 128.552 12.3592 128.552 11.6298C128.552 10.9013 127.443 10.2282 123.971 9.70453" fill="#CDCDD0"/>
</svg>
