<svg width="17" height="16" viewBox="0 0 17 16" fill="none" xmlns="http://www.w3.org/2000/svg">
<path d="M7.1665 13.3334H9.83317C9.83317 14.0698 9.23622 14.6667 8.49984 14.6667C7.76346 14.6667 7.1665 14.0698 7.1665 13.3334Z" fill="#3843FF"/>
<path d="M9.16942 2.66663H7.83024L7.14599 2.91277C5.55849 3.48384 4.49997 4.98955 4.49997 6.67664V8.89021C4.49997 9.37937 4.26997 9.84006 3.87899 10.134C2.51408 11.1603 3.23987 13.3333 4.94755 13.3333H12.0523C13.76 13.3333 14.4858 11.1603 13.1209 10.134C12.73 9.84007 12.5 9.37938 12.5 8.89023V6.67672C12.5 4.98958 11.4414 3.48384 9.85383 2.9128L9.16942 2.66663Z" fill="white"/>
<path d="M7.8335 2.00004C7.8335 1.63185 8.13197 1.33337 8.50016 1.33337C8.86835 1.33337 9.16683 1.63185 9.16683 2.00004V2.66671H7.8335V2.00004Z" fill="#3843FF"/>
</svg>
