<svg width="151" height="16" viewBox="0 0 151 16" fill="none" xmlns="http://www.w3.org/2000/svg">
<path fill-rule="evenodd" clip-rule="evenodd" d="M87.8463 12.819C84.7114 12.7478 65.6093 12.7478 62.4744 12.819C59.7945 12.8848 56.8965 13.0379 56.8965 13.3736C57.0523 13.6939 58.816 13.9765 61.2591 14.1558L61.2529 14.1565C64.4127 14.4183 68.1209 14.5848 72.0037 14.6446C74.0728 14.6748 76.1793 14.6735 78.3233 14.6446C82.1998 14.5848 85.908 14.4183 89.0678 14.1565L89.0616 14.1558C91.5047 13.9765 93.2684 13.6939 93.4242 13.3736C93.4242 13.0379 90.5262 12.8848 87.8463 12.819" fill="#040415"/>
<path fill-rule="evenodd" clip-rule="evenodd" d="M123.971 7.76348C119.39 7.19478 117.309 6.70195 117.309 5.86469V5.58001C117.309 4.48894 114.947 3.78596 109.811 3.08298C101.896 1.99125 88.5715 1.33325 75.5272 1.33325H74.9725C62.2024 1.33325 49.2953 1.96103 41.2431 3.00845C35.8272 3.72553 33.1909 4.45873 33.1909 5.58001V5.86469C33.1909 6.70195 31.2464 7.19478 26.5285 7.76348C23.0571 8.18244 21.9478 8.72093 21.9478 9.30372C21.9478 9.88719 23.7489 10.4398 27.3637 10.889C32.0815 11.4274 38.7439 11.7712 45.5496 11.831C55.403 11.9505 65.2563 11.9955 75.253 11.9955C85.2434 11.9955 95.0967 11.9203 104.956 11.831C111.756 11.7712 118.418 11.4274 123.136 10.889C126.745 10.4398 128.552 9.88719 128.552 9.30372C128.552 8.72093 127.443 8.18244 123.971 7.76348" fill="#CDCDD0"/>
</svg>
