<svg width="24" height="24" viewBox="0 0 24 24" fill="none" xmlns="http://www.w3.org/2000/svg">
<path fill-rule="evenodd" clip-rule="evenodd" d="M21.8042 12.0048C21.8042 17.5137 17.3558 22 11.8933 22C6.43084 22 1.98242 17.5137 1.98242 12.0048C1.98242 6.48625 6.43084 2 11.8933 2C17.3558 2 21.8042 6.48625 21.8042 12.0048Z" fill="#CDCDD0"/>
<path fill-rule="evenodd" clip-rule="evenodd" d="M15.8575 12.0049C15.8575 12.2576 15.7787 12.5113 15.621 12.7145C15.5915 12.7543 15.4535 12.9186 15.3451 13.0255L15.286 13.0838C14.4582 13.9694 12.3986 15.3011 11.354 15.7278C11.354 15.7375 10.7332 15.9913 10.4375 16H10.3981C9.9448 16 9.52105 15.7482 9.30425 15.34C9.186 15.1154 9.0776 14.4642 9.06774 14.4554C8.97905 13.8712 8.91992 12.9769 8.91992 11.9951C8.91992 10.9657 8.97905 10.0316 9.08745 9.45808C9.08745 9.44836 9.19585 8.92345 9.26483 8.74848C9.37323 8.49672 9.57032 8.2819 9.81669 8.14581C10.0138 8.04957 10.2207 8 10.4375 8C10.6642 8.01069 11.0879 8.15553 11.2555 8.22357C12.3592 8.65128 14.4681 10.051 15.2761 10.9064C15.4141 11.0425 15.5619 11.2087 15.6013 11.2467C15.7689 11.4605 15.8575 11.723 15.8575 12.0049Z" fill="#040415"/>
</svg>
