<svg width="20" height="21" viewBox="0 0 20 21" fill="none" xmlns="http://www.w3.org/2000/svg">
<path d="M12.4498 5.07502C12.7648 4.71192 13.0051 4.29016 13.1566 3.83397C13.3082 3.37777 13.3682 2.89613 13.3331 2.41669C12.3659 2.49476 11.4681 2.94965 10.8331 3.68335C10.5291 4.035 10.2986 4.44409 10.1555 4.88639C10.0123 5.32869 9.9594 5.79522 9.9998 6.25835C10.4716 6.26228 10.938 6.1576 11.3628 5.9524C11.7876 5.74721 12.1596 5.447 12.4498 5.07502ZM14.5498 11.275C14.5554 10.6365 14.7236 10.0099 15.0385 9.45436C15.3535 8.89884 15.8048 8.43274 16.3498 8.10002C16.0058 7.60439 15.5511 7.19572 15.0217 6.90642C14.4923 6.61712 13.9027 6.45515 13.2998 6.43335C11.9998 6.30002 10.7998 7.19169 10.1081 7.19169C9.41647 7.19169 8.44147 6.45002 7.35814 6.46669C6.64991 6.49002 5.95982 6.6965 5.35518 7.06601C4.75053 7.43551 4.25198 7.95542 3.90814 8.57502C2.44147 11.125 3.53314 14.9167 4.9998 16.975C5.66647 17.9834 6.4998 19.125 7.5998 19.0834C8.6998 19.0417 9.05814 18.4 10.3331 18.4C11.6081 18.4 11.9998 19.0834 13.0831 19.0584C14.1665 19.0334 14.9331 18.025 15.6331 17.0167C16.129 16.2846 16.5164 15.4847 16.7831 14.6417C16.1227 14.36 15.5592 13.8911 15.1623 13.2928C14.7654 12.6945 14.5525 11.993 14.5498 11.275Z" fill="black"/>
</svg>
